<?xml version="1.0" encoding="UTF-8"?>
<svg width="23px" height="36px" viewBox="0 0 23 36" version="1.1" xmlns="http://www.w3.org/2000/svg" xmlns:xlink="http://www.w3.org/1999/xlink">
    <title>Location</title>
    <defs>
        <polygon id="path-1" points="0 0 21.255 0 21.255 34.2678 0 34.2678"></polygon>
    </defs>
    <g id="Design-2" stroke="none" stroke-width="1" fill="none" fill-rule="evenodd">
        <g id="Location" transform="translate(0.905020, 0.983000)">
            <g>
                <mask id="mask-2" fill="white">
                    <use xlink:href="#path-1"></use>
                </mask>
                <g id="Clip-2"></g>
                <path d="M3.547,13.469 L4.1,14.582 L10.623,27.58 L17.713,13.466 C17.852,13.104 17.965,12.74 18.05,12.386 C18.186,11.816 18.255,11.221 18.255,10.623 C18.255,6.42 14.831,3 10.623,3 C6.42,3 3,6.42 3,10.623 C3,11.223 3.069,11.817 3.205,12.389 C3.294,12.764 3.409,13.126 3.547,13.469 L3.547,13.469 Z M10.623,34.268 L0.792,14.657 C0.585,14.156 0.415,13.625 0.286,13.081 C0.097,12.284 0,11.456 0,10.623 C0,4.766 4.766,0 10.623,0 C16.485,0 21.255,4.766 21.255,10.623 C21.255,11.454 21.158,12.282 20.968,13.083 C20.845,13.596 20.681,14.114 20.481,14.624 L20.422,14.756 L19.82,15.945 L10.623,34.268 Z" id="Fill-1" fill="#A5AFA7" mask="url(#mask-2)"></path>
            </g>
            <path d="M10.6269,13.9454 C8.8689,13.9454 7.4439,12.5194 7.4439,10.7614 C7.4439,9.0034 8.8689,7.5774 10.6269,7.5774 C12.3859,7.5774 13.8109,9.0034 13.8109,10.7614 C13.8109,12.5194 12.3859,13.9454 10.6269,13.9454 Z" id="Fill-4" fill="#A5AFA7"></path>
        </g>
    </g>
</svg>