<?xml version="1.0" encoding="UTF-8"?>
<svg width="33px" height="33px" viewBox="0 0 33 33" version="1.1" xmlns="http://www.w3.org/2000/svg" xmlns:xlink="http://www.w3.org/1999/xlink">
    <title>Phone</title>
    <defs>
        <polygon id="path-1" points="-1.49880108e-15 0 32.0499204 0 32.0499204 32.068 -1.49880108e-15 32.068"></polygon>
    </defs>
    <g id="Design-2" stroke="none" stroke-width="1" fill="none" fill-rule="evenodd">
        <g id="Phone">
            <mask id="mask-2" fill="white">
                <use xlink:href="#path-1"></use>
            </mask>
            <g id="Clip-7"></g>
            <path d="M6.9471204,4.242 L3.6011204,7.588 C3.0511204,8.138 2.8631204,8.935 3.1091204,9.671 C3.1621204,9.834 3.2171204,9.991 3.2741204,10.149 C5.0411204,15.059 7.3301204,18.878 10.2721204,21.819 C13.2141204,24.762 17.0311204,27.051 21.9431204,28.817 L22.3491204,28.959 C23.0911204,29.209 23.8921204,29.015 24.4471204,28.461 L27.8061204,25.101 L23.8251204,21.12 L20.9051204,24.042 L20.0661204,23.813 C17.2741204,23.054 14.6981204,21.554 12.6171204,19.473 C10.5131204,17.37 9.0051204,14.769 8.2551204,11.955 L8.0321204,11.119 L10.9271204,8.223 L6.9471204,4.242 Z M23.0081204,32.068 C22.4701204,32.068 21.9271204,31.981 21.3971204,31.804 C21.2421204,31.752 21.0861204,31.697 20.9281204,31.64 C15.5911204,29.721 11.4111204,27.202 8.1501204,23.94 C4.8891204,20.679 2.3711204,16.501 0.450120398,11.164 C0.385120398,10.981 0.322120398,10.799 0.261120398,10.617 C-0.344879602,8.8 0.121120398,6.824 1.4801204,5.467 L6.9471204,0 L15.1711204,8.223 L11.3981204,11.995 C12.0691204,13.988 13.2131204,15.827 14.7391204,17.352 C16.2441204,18.857 18.0621204,19.993 20.0361204,20.668 L23.8251204,16.878 L32.0501204,25.101 L26.5681204,30.582 C25.6001204,31.551 24.3211204,32.068 23.0081204,32.068 L23.0081204,32.068 Z" id="Fill-6" fill="#A5AFA7" mask="url(#mask-2)"></path>
        </g>
    </g>
</svg>